<?xml version="1.0" standalone="no"?>
<!DOCTYPE svg PUBLIC "-//W3C//DTD SVG 20010904//EN"
 "http://www.w3.org/TR/2001/REC-SVG-20010904/DTD/svg10.dtd">
<svg version="1.0" xmlns="http://www.w3.org/2000/svg"
 width="752.000000pt" height="735.000000pt" viewBox="0 0 752.000000 735.000000"
 preserveAspectRatio="xMidYMid meet">

<g transform="translate(0.000000,735.000000) scale(0.100000,-0.100000)"
fill="#000000" stroke="none">
<path d="M6515 5627 c-178 -130 -329 -274 -401 -382 -116 -176 -182 -415 -172
-624 l3 -63 80 133 c44 74 112 186 151 250 40 63 84 140 99 170 16 30 30 48
32 41 8 -22 -66 -201 -145 -352 -124 -238 -135 -260 -129 -266 16 -17 157 86
248 181 182 189 274 427 279 720 3 156 1 215 -7 214 -5 0 -21 -10 -38 -22z"/>
<path d="M1660 5606 c-213 -46 -366 -175 -440 -371 -28 -74 -37 -207 -21 -288
32 -150 150 -294 301 -365 66 -31 87 -36 170 -40 112 -5 178 11 266 64 108 65
159 132 190 254 41 161 -35 328 -188 411 -58 32 -69 34 -153 34 -102 0 -141
-15 -209 -82 -50 -49 -68 -93 -69 -168 -1 -90 46 -168 116 -194 40 -15 123
-14 155 3 58 30 102 101 102 166 0 34 3 41 17 38 31 -6 63 -67 63 -118 0 -95
-48 -173 -134 -218 -43 -22 -63 -26 -136 -26 -69 0 -93 4 -128 23 -281 147
-260 539 36 683 l67 33 1380 0 1380 0 69 -34 c85 -41 141 -97 181 -176 28 -56
30 -67 30 -175 0 -106 -2 -120 -28 -172 -93 -188 -345 -244 -486 -106 -54 53
-74 103 -68 170 5 57 32 120 52 122 6 1 12 -24 15 -54 6 -67 26 -101 82 -138
35 -23 52 -27 109 -26 91 0 129 25 169 109 25 52 26 137 1 190 -47 104 -120
148 -251 149 -74 1 -92 -3 -142 -27 -80 -39 -151 -110 -184 -182 -22 -48 -28
-74 -28 -135 0 -104 17 -156 77 -236 157 -208 436 -243 651 -82 78 59 115 104
162 203 80 166 65 345 -41 511 -79 124 -196 207 -341 244 -75 19 -114 20
-1408 19 -990 0 -1345 -4 -1386 -13z"/>
<path d="M2144 5259 c39 -46 91 -147 101 -197 l7 -32 786 2 786 3 12 41 c17
58 47 113 94 172 l40 52 -931 0 -931 0 36 -41z"/>
<path d="M5590 5012 c-84 -87 -189 -240 -228 -333 -34 -78 -52 -182 -52 -296
0 -167 31 -378 50 -343 7 15 77 262 122 432 23 90 38 99 32 19 -7 -81 -44
-324 -60 -385 -8 -32 -13 -60 -12 -61 8 -7 148 175 181 234 72 132 93 290 67
509 -10 89 -49 262 -59 261 -3 0 -22 -17 -41 -37z"/>
<path d="M2280 3263 c0 -921 4 -1633 9 -1628 19 21 154 220 172 254 18 35 19
71 19 1346 l0 1310 25 37 c32 47 83 66 118 44 13 -9 33 -33 45 -55 l22 -39 0
-1164 0 -1165 116 118 116 118 2 1054 2 1055 26 34 c54 70 122 71 174 3 l24
-32 0 -956 c0 -526 3 -958 8 -961 4 -2 60 34 125 81 l117 85 0 864 c0 849 0
865 20 904 27 53 71 76 112 59 16 -7 41 -28 54 -48 l24 -36 0 -433 c1 -237 5
-432 9 -432 5 0 12 7 15 17 11 27 88 132 134 182 l43 46 -3 485 -3 485 -762 3
-763 2 0 -1637z"/>
<path d="M4953 4381 c-111 -83 -240 -223 -280 -302 -42 -84 -81 -231 -90 -344
-9 -107 -5 -247 7 -240 5 3 24 38 43 78 88 183 155 327 177 380 13 31 27 54
32 49 15 -15 -98 -375 -154 -485 -35 -70 -28 -67 81 32 136 124 213 242 253
390 16 61 21 117 25 289 4 134 2 212 -4 212 -6 0 -46 -27 -90 -59z"/>
<path d="M5755 4252 c-142 -172 -392 -414 -550 -533 -248 -187 -342 -246 -735
-464 -157 -87 -366 -203 -465 -258 -221 -122 -343 -198 -550 -341 -205 -142
-304 -222 -439 -354 -300 -293 -498 -579 -659 -952 -50 -116 -102 -259 -96
-263 14 -10 206 -117 211 -117 3 0 9 17 13 37 11 64 75 274 106 353 96 241
290 541 480 744 288 308 650 567 1399 1006 227 133 323 195 525 339 241 173
453 365 617 561 61 72 242 339 236 346 -3 2 -44 -44 -93 -104z"/>
<path d="M6320 4343 c-232 -36 -471 -181 -574 -346 -10 -16 -16 -31 -13 -33 3
-3 24 4 48 15 128 58 363 147 420 160 41 9 57 -6 17 -17 -34 -9 -213 -98 -342
-170 l-119 -67 39 -6 c81 -13 220 -1 320 26 180 49 328 146 476 313 43 48 78
90 78 94 0 22 -261 45 -350 31z"/>
<path d="M4170 4053 c-282 -188 -464 -431 -526 -700 -18 -80 -32 -414 -16
-398 5 6 43 71 84 145 159 287 202 366 231 422 54 105 54 64 1 -80 -37 -100
-174 -400 -205 -452 -15 -24 -26 -46 -24 -49 6 -6 50 24 151 105 115 91 210
209 275 339 79 159 91 221 96 483 3 123 1 222 -4 222 -4 0 -33 -17 -63 -37z"/>
<path d="M5480 3540 c-115 -25 -188 -52 -289 -106 -130 -70 -247 -160 -183
-140 71 22 486 66 622 65 80 0 24 -15 -265 -74 -154 -31 -300 -62 -325 -69
l-45 -14 47 -20 c138 -61 231 -77 403 -69 197 8 352 55 540 163 119 69 226
158 208 174 -17 15 -203 71 -301 90 -131 26 -295 26 -412 0z"/>
<path d="M4535 2936 c-103 -17 -152 -31 -244 -68 -75 -29 -181 -87 -181 -99 0
-3 28 -2 63 3 163 21 642 -23 607 -55 -3 -3 -115 -8 -250 -12 -135 -4 -299
-10 -365 -14 l-120 -6 85 -44 c253 -130 449 -162 714 -116 125 22 233 59 366
126 135 67 152 82 124 104 -59 47 -282 136 -428 171 -87 21 -275 26 -371 10z"/>
<path d="M3620 2295 c-76 -18 -141 -43 -235 -90 -171 -85 -237 -139 -140 -114
49 13 580 24 672 14 115 -12 52 -25 -272 -56 -210 -19 -465 -63 -465 -79 0
-22 206 -88 360 -115 158 -29 191 -30 345 -10 178 24 283 56 440 137 74 38
225 137 225 147 0 17 -221 115 -333 147 -116 34 -131 36 -307 40 -171 4 -193
2 -290 -21z"/>
</g>
</svg>
